<svg xmlns="http://www.w3.org/2000/svg" width="300" height="100" viewBox="0 0 300 100" fill="none"><path d="M160.518 80.581V86.1043H160.881V83.8324H161.567C162.443 83.8324 162.845 83.3979 162.845 82.522V81.923C162.845 81.1181 162.514 80.581 161.662 80.581H160.518ZM160.881 83.5003V80.9132H161.662C162.278 80.9132 162.483 81.2993 162.483 81.8994V82.5456C162.483 83.2166 162.206 83.5003 161.567 83.5003H160.881ZM166.417 80.581V86.1043H166.78V83.6343H167.356C167.987 83.6343 168.39 83.8403 168.39 84.5732V85.4412C168.39 85.7407 168.413 85.9388 168.508 86.1043H168.886C168.768 85.9231 168.752 85.6698 168.752 85.4412V84.5811C168.752 83.9822 168.524 83.5791 167.955 83.453C168.5 83.3269 168.752 82.9565 168.752 82.3092V81.8285C168.752 81.0471 168.413 80.581 167.569 80.581H166.417ZM166.78 83.3033V80.9132H167.561C168.16 80.9132 168.39 81.2678 168.39 81.86V82.3801C168.39 83.122 168.01 83.3033 167.364 83.3033H166.78ZM172.451 84.7556C172.451 85.5594 172.821 86.1516 173.658 86.1516C174.51 86.1516 174.88 85.5594 174.88 84.7556V81.9309C174.88 81.1259 174.51 80.5338 173.658 80.5338C172.821 80.5338 172.451 81.1259 172.451 81.9309V84.7556ZM172.813 81.9073C172.813 81.3072 173.05 80.8659 173.658 80.8659C174.273 80.8659 174.518 81.3072 174.518 81.9073V84.7792C174.518 85.3782 174.273 85.8206 173.658 85.8206C173.05 85.8206 172.813 85.3782 172.813 84.7792V81.9073ZM178.405 80.581L179.62 86.1043H180.156L181.356 80.581H181.016L179.896 85.6855L178.776 80.581H178.405ZM185.283 83.1378V80.9132H187.097V80.581H184.919V86.1043H187.097V85.7722H185.283V83.4688H186.789V83.1378H185.283ZM190.7 80.581V86.1043H191.915C192.767 86.1043 193.138 85.5437 193.138 84.7308V81.9545C193.138 81.1417 192.767 80.581 191.915 80.581H190.7ZM191.063 85.7722V80.9132H191.907C192.515 80.9132 192.775 81.3308 192.775 81.9388V84.7466C192.775 85.3545 192.523 85.7722 191.907 85.7722H191.063ZM196.726 84.7556C196.726 85.5594 197.096 86.1516 197.933 86.1516C198.785 86.1516 199.155 85.5594 199.155 84.7556V81.9309C199.155 81.1259 198.785 80.5338 197.933 80.5338C197.096 80.5338 196.726 81.1259 196.726 81.9309V84.7556ZM197.088 81.9073C197.088 81.3072 197.326 80.8659 197.933 80.8659C198.548 80.8659 198.793 81.3072 198.793 81.9073V84.7792C198.793 85.3782 198.548 85.8206 197.933 85.8206C197.326 85.8206 197.088 85.3782 197.088 84.7792V81.9073ZM202.767 80.581V86.1043H203.129V83.6343H203.706C204.337 83.6343 204.739 83.8403 204.739 84.5732V85.4412C204.739 85.7407 204.763 85.9388 204.858 86.1043H205.237C205.118 85.9231 205.102 85.6698 205.102 85.4412V84.5811C205.102 83.9822 204.873 83.5791 204.306 83.453C204.85 83.3269 205.102 82.9565 205.102 82.3092V81.8285C205.102 81.0471 204.763 80.581 203.919 80.581H202.767ZM203.129 83.3033V80.9132H203.911C204.511 80.9132 204.739 81.2678 204.739 81.86V82.3801C204.739 83.122 204.361 83.3033 203.714 83.3033H203.129ZM215.367 80.581V86.1043H216.582C217.434 86.1043 217.805 85.5437 217.805 84.7308V81.9545C217.805 81.1417 217.434 80.581 216.582 80.581H215.367ZM215.73 85.7722V80.9132H216.574C217.182 80.9132 217.442 81.3308 217.442 81.9388V84.7466C217.442 85.3545 217.19 85.7722 216.574 85.7722H215.73ZM221.779 83.1378V80.9132H223.594V80.581H221.416V86.1043H223.594V85.7722H221.779V83.4688H223.286V83.1378H221.779ZM233.741 86.1043H234.609V80.581H233.741V86.1043ZM240.105 86.1043H240.997V80.581H240.223V83.8876L239.332 80.581H238.243V86.1043H239.024V82.1043L240.105 86.1043ZM244.379 81.3702H245.286V86.1043H246.154V81.3702H247.061V80.581H244.379V81.3702ZM251.319 81.3702H252.819V80.581H250.452V86.1043H252.819V85.3151H251.319V83.6973H252.512V82.9092H251.319V81.3702ZM259.065 86.1043C258.978 85.8994 258.97 85.7013 258.97 85.4333V84.5811C258.97 84.0058 258.829 83.587 258.394 83.4057C258.781 83.2245 258.963 82.8541 258.963 82.2855V81.8521C258.963 80.9998 258.576 80.581 257.677 80.581H256.366V86.1043H257.234V83.8561H257.535C257.929 83.8561 258.102 84.0452 258.102 84.5575V85.4255C258.102 85.8758 258.134 85.9625 258.181 86.1043H259.065ZM257.653 81.3702C257.961 81.3702 258.095 81.5436 258.095 81.9388V82.4826C258.095 82.925 257.898 83.0669 257.574 83.0669H257.234V81.3702H257.653ZM264.404 86.1043H265.295V80.581H264.523V83.8876L263.631 80.581H262.543V86.1043H263.323V82.1043L264.404 86.1043ZM269.799 81.3702H271.297V80.581H268.931V86.1043H271.297V85.3151H269.799V83.6973H270.99V82.9092H269.799V81.3702ZM274.594 81.3702H275.501V86.1043H276.368V81.3702H277.275V80.581H274.594V81.3702Z" fill="white"></path><path fill-rule="evenodd" clip-rule="evenodd" d="M151.729 89.9895C74.1953 95.2933 10.6075 81.8239 9.4896 59.7836C9.40516 58.114 9.68774 56.4433 10.3036 54.7782C18.8812 74.6243 78.4701 89.9929 150.711 89.9929C151.052 89.9929 151.39 89.9907 151.729 89.9895Z" fill="#FFF212"></path><path fill-rule="evenodd" clip-rule="evenodd" d="M149.694 9.69001C227.228 4.38624 290.816 17.8556 291.933 39.8959C292.018 41.5655 291.735 43.2362 291.119 44.9013C282.542 25.0553 222.953 9.68663 150.711 9.68663C150.371 9.68663 150.033 9.68888 149.694 9.69001Z" fill="#006CAC"></path><path d="M202.46 43.1259L202.83 41.4856H194.081L193.71 43.1259H202.46Z" fill="#474747"></path><path d="M134.039 34.5437C134.679 35.1922 135.035 36.031 135.117 37.06C135.199 38.0901 135.081 39.3105 134.761 40.7268L133.217 47.5583C132.98 48.6008 132.644 49.4902 132.213 50.2209C131.782 50.9515 131.133 51.7013 130.257 52.4703C128.792 53.7852 126.779 54.4461 124.236 54.4461H119.98C119.214 54.4461 118.569 54.383 118.054 54.2491C117.538 54.1218 116.974 53.8933 116.36 53.5691C115.681 53.1818 115.131 52.7247 114.722 52.1911L112.183 63.4189H102.848L109.676 33.222H118.889L118.435 35.0459C119.198 34.4548 119.952 34.0033 120.705 33.7117C121.342 33.4382 121.926 33.2603 122.461 33.1781C122.995 33.0948 123.713 33.0565 124.609 33.0565H128.715C129.989 33.0565 131.048 33.159 131.9 33.356C132.751 33.553 133.462 33.9527 134.039 34.5437ZM126.92 39.4872H117.466L115.843 46.6655H125.297L126.92 39.4872Z" fill="#006CAC"></path><path d="M98.8667 25.4065H108.016L106.879 30.4322H97.7296L98.8667 25.4065Z" fill="#006CAC"></path><path d="M97.0935 33.0565H106.286L101.474 54.3391H92.2817L97.0935 33.0565Z" fill="#006CAC"></path><path d="M69.9543 54.2997H60.798L67.2962 25.3683H76.7036L74.6873 34.2893C75.1511 34.0416 75.6656 33.8255 76.2398 33.6352C77.3386 33.2727 78.7042 33.0948 80.3232 33.0948H84.4358C87.3089 33.0948 89.1643 33.6982 89.9974 34.8995C90.933 36.0816 91.1818 37.6454 90.7416 39.5897L89.0956 46.8715H91.1514L89.4638 54.3391H85.2216C84.0891 54.3391 83.1366 54.2119 82.3609 53.9631C81.5796 53.7154 80.9109 53.2831 80.3547 52.6673C79.8199 52.0571 79.4889 51.4278 79.3583 50.7669C79.2277 50.1128 79.2536 49.363 79.445 48.5175L81.261 40.4858H73.0785L69.9543 54.2997Z" fill="#006CAC"></path><path d="M44.6818 25.3683H64.2217L62.4192 33.3369H42.7296L39.7676 46.4392H59.6001L57.8134 54.3391H39.199C36.8494 54.3391 34.9164 54.1095 33.392 53.6591C31.8677 53.2077 30.7857 52.3498 30.1305 51.0979C29.7173 50.392 29.5023 49.5983 29.4798 48.7145C29.4652 47.8307 29.5834 46.8333 29.8355 45.7153L32.4362 34.2139C32.6591 33.2288 32.9338 32.3326 33.2693 31.513C33.5981 30.6934 34.0518 29.9245 34.6136 29.2118C35.1821 28.5003 35.8812 27.853 36.7155 27.2675C37.7186 26.5369 38.8647 26.0347 40.1492 25.7679C41.4349 25.5011 42.9413 25.3683 44.6818 25.3683Z" fill="#006CAC"></path><path d="M266.357 56.9375C265.538 58.946 264.73 60.6483 262.9 61.7414C261.898 62.3393 260.784 62.7648 259.549 63.0249C258.315 63.2861 256.944 63.2568 255.477 63.4189L114.364 79.0353L119.591 57.4599L257.235 55.9907L260.945 48.5355H243.119L245.409 41.5272C245.948 39.8734 246.246 38.4526 246.773 37.391C247.3 36.3293 248.137 35.4208 249.289 34.6586C250.13 34.0799 251.036 33.6859 251.994 33.4765C252.942 33.2727 254.047 33.1714 255.287 33.1714H271.143L269.445 40.6761H255.144L254.867 41.9021H272.486L266.357 56.9375Z" fill="#FFF212"></path><path d="M220.945 54.2997L210.919 54.3391L209.862 33.222H219.391L219.73 44.4319L224.671 33.2603H232.058L231.991 44.2281L237.396 33.222H246.99L235.774 54.3391H226.309L226.264 42.1825L220.945 54.2997Z" fill="#FFF212"></path><path d="M207.204 34.5438C207.773 35.1292 208.111 35.7574 208.224 36.4318C208.337 37.105 208.283 37.9438 208.059 38.9345L206.605 45.3663H189.811L189.461 46.9098H202.222L200.551 54.2998H187.432C185.877 54.2998 184.571 54.186 183.512 53.9575C182.452 53.7278 181.645 53.309 181.103 52.6988C180.619 52.1776 180.279 51.6192 180.086 51.0146C179.893 50.4111 179.816 49.801 179.85 49.1784C179.881 48.5625 180.007 47.7801 180.221 46.8333L181.956 39.1641C182.155 38.2804 182.459 37.5373 182.865 36.9204C183.269 36.3045 183.855 35.6437 184.631 34.9378C185.337 34.2893 186.244 33.8255 187.342 33.5339C188.446 33.2412 189.633 33.0948 190.909 33.0948H203.247C204.974 33.0948 206.29 33.5778 207.204 34.5438ZM199.008 41.2739L199.379 39.6336H190.629L190.259 41.2739H199.008Z" fill="#FFF212"></path><path d="M169.909 38.662L172.985 25.241H183.167L176.572 54.4078L166.766 54.3324L158.161 36.8764L154.196 54.4078H144.187L150.745 25.4065H163.304L169.909 38.662Z" fill="#FFF212"></path></svg>